HIERARCHY
ROOT hip
{
  OFFSET 0.00112043 5.09927 -9.65472
  CHANNELS 6 Xposition Yposition Zposition Zrotation Xrotation Yrotation
  JOINT abdomen
  {
    OFFSET 0 -1.186 -1.5018
    CHANNELS 3 Zrotation Xrotation Yrotation
    JOINT abdomen2
    {
      OFFSET 0 9.964 0.2134
      CHANNELS 3 Zrotation Xrotation Yrotation
      JOINT chest
      {
        OFFSET 0 13.134 -3.2573
        CHANNELS 3 Zrotation Xrotation Yrotation
        JOINT neck
        {
          OFFSET 0 20.686 -1.6905
          CHANNELS 3 Zrotation Xrotation Yrotation
          JOINT head
          {
            OFFSET 0 7.238 -0.1237
            CHANNELS 3 Zrotation Xrotation Yrotation
            End Site
            {
              OFFSET 0 0 0
            }
          }
        }
        JOINT lCollar
        {
          OFFSET 1.7069 20.075 5.0056
          CHANNELS 3 Zrotation Xrotation Yrotation
          JOINT lShldr
          {
            OFFSET 13.6458 -0.047 -4.849
            CHANNELS 3 Zrotation Xrotation Yrotation
            JOINT lForeArm
            {
              OFFSET 28.3255 -0.9759 2.2888
              CHANNELS 3 Zrotation Xrotation Yrotation
              JOINT lHand
              {
                OFFSET 22.1583 -0.53 10.8316
                CHANNELS 3 Zrotation Xrotation Yrotation
                JOINT lThumb1
                {
                  OFFSET 0.786 0.112 2.5817
                  CHANNELS 3 Zrotation Xrotation Yrotation
                  JOINT lThumb2
                  {
                    OFFSET 0.3601 -0.878 4.2331
                    CHANNELS 3 Zrotation Xrotation Yrotation
                    JOINT lThumb2_End
                    {
                      OFFSET 1.8127 -1.216 2.2227
                      CHANNELS 3 Zrotation Xrotation Yrotation
                      End Site
                      {
                        OFFSET 0.0181 -0.0122 0.0222
                      }
                    }
                  }
                }
                JOINT lCarpal1
                {
                  OFFSET 0.9571 1.114 1.7695
                  CHANNELS 3 Zrotation Xrotation Yrotation
                  JOINT lIndex1
                  {
                    OFFSET 4.1246 0.487 4.1451
                    CHANNELS 3 Zrotation Xrotation Yrotation
                    JOINT lIndex2
                    {
                      OFFSET 3.4052 -1.454 2.7682
                      CHANNELS 3 Zrotation Xrotation Yrotation
                      JOINT lIndex2_End
                      {
                        OFFSET 1.4531 -1.795 1.2713
                        CHANNELS 3 Zrotation Xrotation Yrotation
                        End Site
                        {
                          OFFSET 0.0145 -0.0179 0.0127
                        }
                      }
                    }
                  }
                  JOINT lMid1
                  {
                    OFFSET 5.6954 0.21 2.1184
                    CHANNELS 3 Zrotation Xrotation Yrotation
                    JOINT lMid2
                    {
                      OFFSET 3.9766 -1.54 2.3863
                      CHANNELS 3 Zrotation Xrotation Yrotation
                      JOINT lMid2_End
                      {
                        OFFSET 1.4042 -1.926 1.125
                        CHANNELS 3 Zrotation Xrotation Yrotation
                        End Site
                        {
                          OFFSET 0.014 -0.0193 0.0113
                        }
                      }
                    }
                  }
                }
                JOINT lCarpal2
                {
                  OFFSET 2.0956 0.66 -0.3894
                  CHANNELS 3 Zrotation Xrotation Yrotation
                  JOINT lRing1
                  {
                    OFFSET 5.0395 -0.09 2.4971
                    CHANNELS 3 Zrotation Xrotation Yrotation
                    JOINT lRing2
                    {
                      OFFSET 3.7921 -1.552 1.4806
                      CHANNELS 3 Zrotation Xrotation Yrotation
                      JOINT lRing2_End
                      {
                        OFFSET 1.4655 -1.808 0.9609
                        CHANNELS 3 Zrotation Xrotation Yrotation
                        End Site
                        {
                          OFFSET 0.0147 -0.0181 0.0096
                        }
                      }
                    }
                  }
                  JOINT lPinky1
                  {
                    OFFSET 4.9141 -1.269 0.3591
                    CHANNELS 3 Zrotation Xrotation Yrotation
                    JOINT lPinky2
                    {
                      OFFSET 3.1477 -1.685 0.8462
                      CHANNELS 3 Zrotation Xrotation Yrotation
                      JOINT lPinky2_End
                      {
                        OFFSET 0.8055 -1.585 0.7955
                        CHANNELS 3 Zrotation Xrotation Yrotation
                        End Site
                        {
                          OFFSET 0.0081 -0.0158 0.008
                        }
                      }
                    }
                  }
                }
              }
            }
          }
        }
        JOINT rCollar
        {
          OFFSET -1.7069 20.075 5.0056
          CHANNELS 3 Zrotation Xrotation Yrotation
          JOINT rShldr
          {
            OFFSET -13.6458 -0.047 -4.849
            CHANNELS 3 Zrotation Xrotation Yrotation
            JOINT rForeArm
            {
              OFFSET -28.3255 -0.9759 2.2888
              CHANNELS 3 Zrotation Xrotation Yrotation
              JOINT rHand
              {
                OFFSET -22.1583 -0.53 10.8316
                CHANNELS 3 Zrotation Xrotation Yrotation
                JOINT rThumb1
                {
                  OFFSET -0.786 0.112 2.5817
                  CHANNELS 3 Zrotation Xrotation Yrotation
                  JOINT rThumb2
                  {
                    OFFSET -0.3601 -0.878 4.2331
                    CHANNELS 3 Zrotation Xrotation Yrotation
                    JOINT rThumb2_End
                    {
                      OFFSET -1.8127 -1.216 2.2227
                      CHANNELS 3 Zrotation Xrotation Yrotation
                      End Site
                      {
                        OFFSET -0.0181 -0.0122 0.0222
                      }
                    }
                  }
                }
                JOINT rCarpal1
                {
                  OFFSET -0.9571 1.114 1.7695
                  CHANNELS 3 Zrotation Xrotation Yrotation
                  JOINT rIndex1
                  {
                    OFFSET -4.1246 0.487 4.1451
                    CHANNELS 3 Zrotation Xrotation Yrotation
                    JOINT rIndex2
                    {
                      OFFSET -3.4052 -1.454 2.7682
                      CHANNELS 3 Zrotation Xrotation Yrotation
                      JOINT rIndex2_End
                      {
                        OFFSET -1.4531 -1.795 1.2713
                        CHANNELS 3 Zrotation Xrotation Yrotation
                        End Site
                        {
                          OFFSET -0.0145 -0.018 0.0127
                        }
                      }
                    }
                  }
                  JOINT rMid1
                  {
                    OFFSET -5.6954 0.21 2.1184
                    CHANNELS 3 Zrotation Xrotation Yrotation
                    JOINT rMid2
                    {
                      OFFSET -3.9766 -1.54 2.3863
                      CHANNELS 3 Zrotation Xrotation Yrotation
                      JOINT rMid2_End
                      {
                        OFFSET -1.4042 -1.926 1.125
                        CHANNELS 3 Zrotation Xrotation Yrotation
                        End Site
                        {
                          OFFSET -0.014 -0.0193 0.0113
                        }
                      }
                    }
                  }
                }
                JOINT rCarpal2
                {
                  OFFSET -2.0956 0.66 -0.3894
                  CHANNELS 3 Zrotation Xrotation Yrotation
                  JOINT rRing1
                  {
                    OFFSET -5.0395 -0.09 2.4971
                    CHANNELS 3 Zrotation Xrotation Yrotation
                    JOINT rRing2
                    {
                      OFFSET -3.7921 -1.552 1.4806
                      CHANNELS 3 Zrotation Xrotation Yrotation
                      JOINT rRing2_End
                      {
                        OFFSET -1.4655 -1.808 0.9609
                        CHANNELS 3 Zrotation Xrotation Yrotation
                        End Site
                        {
                          OFFSET -0.0147 -0.0181 0.0096
                        }
                      }
                    }
                  }
                  JOINT rPinky1
                  {
                    OFFSET -4.9141 -1.269 0.3592
                    CHANNELS 3 Zrotation Xrotation Yrotation
                    JOINT rPinky2
                    {
                      OFFSET -3.1477 -1.685 0.8462
                      CHANNELS 3 Zrotation Xrotation Yrotation
                      JOINT rPinky2_End
                      {
                        OFFSET -0.8055 -1.585 0.7955
                        CHANNELS 3 Zrotation Xrotation Yrotation
                        End Site
                        {
                          OFFSET -0.0081 -0.0158 0.008
                        }
                      }
                    }
                  }
                }
              }
            }
          }
        }
      }
    }
  }
  JOINT lThigh
  {
    OFFSET 8.367 -8.2066 0.5982
    CHANNELS 3 Zrotation Xrotation Yrotation
    JOINT lShin
    {
      OFFSET 2.1923 -43.463 -0.4932
      CHANNELS 3 Zrotation Xrotation Yrotation
      JOINT lFoot
      {
        OFFSET 0.7333 -45.8593 -2.6451
        CHANNELS 3 Zrotation Xrotation Yrotation
        End Site
        {
          OFFSET 2.6618 -4.2699 12.3931
        }
      }
    }
  }
  JOINT rThigh
  {
    OFFSET -8.367 -8.2066 0.5982
    CHANNELS 3 Zrotation Xrotation Yrotation
    JOINT rShin
    {
      OFFSET -2.1923 -43.463 -0.4931
      CHANNELS 3 Zrotation Xrotation Yrotation
      JOINT rFoot
      {
        OFFSET -0.7333 -45.8593 -2.6451
        CHANNELS 3 Zrotation Xrotation Yrotation
        End Site
        {
          OFFSET -2.6618 -4.2699 12.3931
        }
      }
    }
  }
}
MOTION
Frames:	4
Frame Time:	0.0333333
-0.00490113 11.6848 -86.2564 -180 -89.9981 -180 -0.0627306 8.59698 -0.10809 -0.110745 17.1941 -0.210149 -0.110745 17.1941 -0.210149 -3.98657e-006 -11.0587 -1.09735e-006 -8.18316e-008 -26.922 -3.15551e-008 -2.80083 2.04386 9.81687 -72.4534 2.90012 35.3521 33.1768 3.81126 -60.9043 5.67972 23.4424 -5.968 -1.19271e-015 3.18055e-015 -3.18055e-015 -7.95139e-016 4.77083e-015 6.36111e-015 1.98785e-015 7.95139e-016 3.18055e-015 3.97569e-016 -1.59028e-015 3.18055e-015 -3.18055e-015 -5.56597e-015 6.36111e-015 -1.59028e-015 9.14409e-015 -3.18055e-015 7.95139e-016 1.19271e-015 3.18055e-015 -3.18055e-015 -5.56597e-015 6.36111e-015 -1.59028e-015 9.14409e-015 -3.18055e-015 7.95139e-016 1.19271e-015 3.18055e-015 3.97569e-016 -1.59028e-015 3.18055e-015 -3.18055e-015 -5.56597e-015 6.36111e-015 -1.59028e-015 9.14409e-015 -3.18055e-015 7.95139e-016 1.19271e-015 3.18055e-015 -3.18055e-015 -5.56597e-015 6.36111e-015 -1.59028e-015 9.14409e-015 -3.18055e-015 7.95139e-016 1.19271e-015 3.18055e-015 2.69992 2.27242 -10.4051 73.263 2.52317 -34.6695 -34.1685 2.06166 58.635 -6.08725 23.5765 7.28425 3.18055e-015 -4.77083e-015 -3.18055e-015 2.24371e-006 6.80562e-007 -5.75636e-007 -7.95139e-016 7.55382e-015 1.27222e-014 1.59028e-015 -6.36111e-015 -0 2.38542e-015 4.77083e-015 9.54166e-015 2.24371e-006 6.80562e-007 -5.75636e-007 2.38542e-015 3.97569e-015 3.18055e-015 2.38542e-015 4.77083e-015 9.54166e-015 2.24371e-006 6.80562e-007 -5.75636e-007 2.38542e-015 3.97569e-015 3.18055e-015 1.59028e-015 -6.36111e-015 -0 2.38542e-015 4.77083e-015 9.54166e-015 2.24371e-006 6.80562e-007 -5.75636e-007 2.38542e-015 3.97569e-015 3.18055e-015 2.38542e-015 4.77083e-015 9.54166e-015 2.24371e-006 6.80562e-007 -5.75636e-007 2.38542e-015 3.97569e-015 3.18055e-015 29.7415 -45.4605 0.440033 -163.591 83.2953 169.574 4.62635 25.7068 7.55434 -28.6262 -45.4607 0.854222 163.601 83.2945 -169.611 -3.62349 25.7888 -8.35561 
-0.00531109 11.6864 -86.2542 -180 -89.9981 -180 -0.0654418 9.1723 -0.106111 -0.115686 18.3447 -0.205484 -0.115686 18.3447 -0.205484 4.70734e-006 -11.5846 3.85453e-007 -2.99271e-008 -27.5628 -7.67465e-008 -3.45517 0.615335 9.01405 -72.173 3.01396 35.2912 33.1768 3.81129 -60.9043 6.83445 21.9241 -6.66965 1.98785e-015 3.18055e-015 3.18055e-015 4.37326e-015 1.98785e-016 3.18055e-015 3.97569e-015 3.37934e-015 -3.18055e-015 -1.19271e-015 3.97569e-016 3.18055e-015 -3.97569e-016 -2.78299e-015 6.36111e-015 1.59028e-015 -3.18055e-015 6.36111e-015 4.77083e-015 -2.5842e-015 -0 -3.97569e-016 -2.78299e-015 6.36111e-015 1.59028e-015 -3.18055e-015 6.36111e-015 4.77083e-015 -2.5842e-015 -0 -1.19271e-015 3.97569e-016 3.18055e-015 -3.97569e-016 -2.78299e-015 6.36111e-015 1.59028e-015 -3.18055e-015 6.36111e-015 4.77083e-015 -2.5842e-015 -0 -3.97569e-016 -2.78299e-015 6.36111e-015 1.59028e-015 -3.18055e-015 6.36111e-015 4.77083e-015 -2.5842e-015 -0 3.55011 0.813708 -9.37807 72.7081 2.75499 -34.5514 -34.1653 2.07415 58.659 -7.18442 21.8372 7.77757 1.59028e-015 -2.78299e-015 6.36111e-015 -7.95139e-016 -2.78299e-015 -0 1.59028e-015 -3.18055e-015 -0 1.59028e-015 -2.78299e-015 6.36111e-015 -7.95139e-016 -2.78299e-015 -0 1.59028e-015 -3.18055e-015 -0 0 0 -0 -7.95139e-016 -2.78299e-015 -0 1.59028e-015 -3.18055e-015 -0 0 0 -0 1.59028e-015 -2.78299e-015 6.36111e-015 -7.95139e-016 -2.78299e-015 -0 1.59028e-015 -3.18055e-015 -0 0 0 -0 -7.95139e-016 -2.78299e-015 -0 1.59028e-015 -3.18055e-015 -0 0 0 -0 29.0156 -45.4299 -0.456184 -163.6 83.2948 169.597 3.95174 25.7709 8.05975 -27.8063 -45.4163 1.85959 163.611 83.2941 -169.637 -2.86178 25.8507 -8.9308 
-0.0057184 11.688 -86.2519 -180 -89.9981 -180 -0.0681645 9.74591 -0.104053 -0.120744 19.4919 -0.200599 -0.120745 19.4919 -0.200599 7.39327e-006 -12.11 2.04479e-006 -1.89124e-008 -28.2026 -1.0319e-007 -4.12899 -0.802785 8.19553 -71.8925 3.1275 35.2298 33.1768 3.81128 -60.9043 7.95656 20.3945 -7.3308 -1.19271e-015 -2.98177e-015 -6.36111e-015 -2.26694e-006 6.03107e-007 5.69128e-007 -1.59028e-015 7.95139e-016 6.36111e-015 -1.19271e-015 5.96354e-016 -0 -3.97569e-016 1.98785e-016 6.36111e-015 -2.26694e-006 6.03107e-007 5.69128e-007 -3.97569e-016 -3.18055e-015 -0 -3.97569e-016 1.98785e-016 6.36111e-015 -2.26694e-006 6.03107e-007 5.69128e-007 -3.97569e-016 -3.18055e-015 -0 -1.19271e-015 5.96354e-016 -0 -3.97569e-016 1.98785e-016 6.36111e-015 -2.26694e-006 6.03107e-007 5.69128e-007 -3.97569e-016 -3.18055e-015 -0 -3.97569e-016 1.98785e-016 6.36111e-015 -2.26694e-006 6.03107e-007 5.69128e-007 -3.97569e-016 -3.18055e-015 -0 4.42547 -0.62809 -8.33055 72.1527 2.98562 -34.431 -34.1622 2.08665 58.683 -8.25188 20.0913 8.22929 2.90994e-006 -1.58545e-006 -5.40032e-007 -1.03359e-006 -7.05486e-007 -5.60107e-006 2.74126e-006 7.43356e-007 2.10893e-006 1.59028e-015 1.59028e-015 -0 2.90994e-006 -1.58545e-006 -5.40032e-007 -1.03359e-006 -7.05486e-007 -5.60107e-006 2.74126e-006 7.43356e-007 2.10893e-006 2.90994e-006 -1.58545e-006 -5.40032e-007 -1.03359e-006 -7.05486e-007 -5.60107e-006 2.74126e-006 7.43356e-007 2.10893e-006 1.59028e-015 1.59028e-015 -0 2.90994e-006 -1.58545e-006 -5.40032e-007 -1.03359e-006 -7.05486e-007 -5.60107e-006 2.74126e-006 7.43356e-007 2.10893e-006 2.90994e-006 -1.58545e-006 -5.40032e-007 -1.03359e-006 -7.05486e-007 -5.60107e-006 2.74126e-006 7.43356e-007 2.10893e-006 28.2916 -45.391 -1.35055 -163.608 83.2947 169.619 3.27642 25.8298 8.56615 -26.988 -45.3624 2.86324 163.621 83.2932 -169.664 -2.09934 25.9057 -9.50703 
-0.0061988 11.6899 -86.2493 -180 -89.9981 -180 -0.0711143 10.3622 -0.101578 -0.126373 20.7245 -0.194736 -0.126373 20.7245 -0.194736 5.84276e-006 -12.6325 1.0947e-006 6.53398e-008 -28.9161 8.43981e-008 -4.90276 -2.30821 7.30158 -71.565 3.25957 35.1574 33.1768 3.81131 -60.9043 9.15255 18.7233 -8.02275 -3.18055e-015 -2.5842e-015 -3.18055e-015 3.97569e-016 -5.36719e-015 -3.18055e-015 8.82781e-032 -1.59028e-015 3.18055e-015 -1.59028e-015 5.96354e-016 -0 -3.57812e-015 -5.96354e-016 -6.36111e-015 1.19271e-015 3.37934e-015 -6.36111e-015 1.19271e-015 -3.18055e-015 -0 -3.57812e-015 -5.96354e-016 -6.36111e-015 1.19271e-015 3.37934e-015 -6.36111e-015 1.19271e-015 -3.18055e-015 -0 -1.59028e-015 5.96354e-016 -0 -3.57812e-015 -5.96354e-016 -6.36111e-015 1.19271e-015 3.37934e-015 -6.36111e-015 1.19271e-015 -3.18055e-015 -0 -3.57812e-015 -5.96354e-016 -6.36111e-015 1.19271e-015 3.37934e-015 -6.36111e-015 1.19271e-015 -3.18055e-015 -0 5.42193 -2.14936 -7.18835 71.5329 3.24118 -34.2933 -34.1591 2.09916 58.707 -9.39315 18.1937 8.69789 1.59028e-015 1.98785e-015 -0 -7.95139e-016 2.78299e-015 -0 -7.95139e-016 3.97569e-015 -9.54166e-015 1.59028e-015 -2.38542e-015 -0 -1.59028e-015 4.77083e-015 -3.18055e-015 -1.59028e-015 1.98785e-015 -1.27222e-014 -7.95139e-016 1.59028e-015 -0 -1.59028e-015 4.77083e-015 -3.18055e-015 -1.59028e-015 1.98785e-015 -1.27222e-014 -7.95139e-016 1.59028e-015 -0 1.59028e-015 -2.38542e-015 -0 -1.59028e-015 4.77083e-015 -3.18055e-015 -1.59028e-015 1.98785e-015 -1.27222e-014 -7.95139e-016 1.59028e-015 -0 -1.59028e-015 4.77083e-015 -3.18055e-015 -1.59028e-015 1.98785e-015 -1.27222e-014 -7.95139e-016 1.59028e-015 -0 27.4487 -45.3359 -2.39201 -163.618 83.2943 169.646 2.48775 25.8918 9.15808 -26.0385 -45.2856 4.02932 163.631 83.2934 -169.692 -1.2092 25.9615 -10.1804 
